PathFileType	4	(X/Y/Z)	RBDS001\RBDS001runT25.trc																																																																																																	
DataRate	CameraRate	NumFrames	NumMarkers	Units	OrigDataRate	OrigDataStartFrame	OrigNumFrames																																																																																													
150	150	4	33	mm	150	562	4500																																																																																													
Frame#	Time	L.ASIS			L.Heel.Bottom			L.Heel.Lateral			L.Heel.Top			L.Iliac.Crest			L.MT1			L.MT5			L.PSIS			L.Shank.Bottom.Lateral			L.Shank.Bottom.Medial			L.Shank.Top.Lateral			L.Shank.Top.Medial			L.Thigh.Bottom.Lateral			L.Thigh.Bottom.Medial			L.Thigh.Top.Lateral			L.Thigh.Top.Medial			R.ASIS			R.ASY			R.Heel.Bottom			R.Heel.Lateral			R.Heel.Top			R.Iliac.Crest			R.MT5			R.MT1			R.PSIS			R.Shank.Bottom.Lateral			R.Shank.Bottom.Medial			R.Shank.Top.Lateral			R.Shank.Top.Medial			R.Thigh.Bottom.Lateral			R.Thigh.Bottom.Medial			R.Thigh.Top.Lateral			R.Thigh.Top.Medial		
		X1	Y1	Z1	X2	Y2	Z2	X3	Y3	Z3	X4	Y4	Z4	X5	Y5	Z5	X6	Y6	Z6	X7	Y7	Z7	X8	Y8	Z8	X9	Y9	Z9	X10	Y10	Z10	X11	Y11	Z11	X12	Y12	Z12	X13	Y13	Z13	X14	Y14	Z14	X15	Y15	Z15	X16	Y16	Z16	X17	Y17	Z17	X18	Y18	Z18	X19	Y19	Z19	X20	Y20	Z20	X21	Y21	Z21	X22	Y22	Z22	X23	Y23	Z23	X24	Y24	Z24	X25	Y25	Z25	X26	Y26	Z26	X27	Y27	Z27	X28	Y28	Z28	X29	Y29	Z29	X30	Y30	Z30	X31	Y31	Z31	X32	Y32	Z32	X33	Y33	Z33
																																																																																																				
563	3.746666667	2325.127152	1056.524091	955.0003698	1744.347773	203.7107954	1048.469972	1769.415423	191.4516807	1004.957742	1783.909786	229.8374427	1043.311954	2277.507643	1133.820208	929.1321555	1910.774058	61.91705727	1076.510488	1871.189969	70.77765749	976.7057163	2159.806366	1114.654797	1031.709058	1887.45516	268.35866	975.4718098	1853.681137	289.7233607	1008.580035	1921.170615	339.6840237	958.1436623	1889.130073	364.6169328	993.035062	2111.804004	684.4707563	925.2347744	2069.019409	701.2914582	982.9521614	2126.45278	793.0361163	909.875337	2091.455269	808.3728565	967.1271887	2324.499303	1061.23835	1161.567637	2492.32235	125.0671236	1135.506242	2299.007167	95.00359992	1111.472301	2326.789242	106.0305307	1157.549347	2316.747576	140.8106601	1113.479584	2269.144655	1138.418284	1196.854437	2491.959193	76.74762744	1194.146251	2522.937613	82.38241798	1091.207786	2163.546325	1112.948253	1106.960052	2387.302623	233.3053398	1172.977496	2345.983592	241.3647918	1138.157564	2387.588445	313.2160825	1188.339916	2347.383721	320.5084718	1152.454221	2394.919657	668.5411088	1206.360021	2341.139492	639.3881654	1164.996352	2333.512044	758.8111945	1220.928185	2281.974502	731.1788565	1181.832265
564	3.753333333	2326.944464	1058.955879	955.0808382	1739.134513	215.3545793	1044.82901	1763.603763	201.4367406	1001.509001	1779.919434	239.5575811	1039.413021	2279.393694	1136.428943	929.3617957	1899.271264	65.61418301	1074.596666	1859.745489	75.16998859	974.5884441	2161.344947	1116.887022	1031.629764	1881.954957	274.4244951	972.5232495	1848.362136	295.7878996	1005.871004	1916.244579	345.5523764	955.7363509	1884.467479	370.4818952	990.8735305	2110.703459	688.4663611	924.6376731	2068.262679	705.7975689	982.4782144	2126.55885	796.8878656	909.3030492	2092.024405	812.6047951	966.723543	2325.629367	1063.211601	1161.500597	2508.875916	125.8449411	1133.222208	2316.328895	89.78234914	1110.70031	2344.309754	100.8629207	1156.654894	2332.564652	136.0656122	1113.434005	2270.222865	1140.42969	1196.858455	2510.723928	76.3218117	1190.72541	2540.220346	85.18045927	1087.54805	2165.000247	1115.027308	1106.926398	2399.570344	230.704714	1172.415094	2357.683666	237.223802	1137.934557	2396.62509	310.4679541	1188.239098	2355.910685	316.2922517	1152.650556	2392.360583	668.1368328	1206.683866	2338.309404	639.5715975	1165.337439	2331.926267	759.1431574	1221.230526	2280.129361	732.0250171	1182.24257
565	3.76	2328.627338	1061.014322	955.1028351	1734.30544	226.7303708	1041.059818	1758.157799	211.2488246	997.9446656	1776.17767	249.0319306	1035.449514	2281.140755	1138.64901	929.5457976	1888.013858	69.63817385	1072.561492	1848.641241	79.89404312	972.3404526	2162.756305	1118.662107	1031.554437	1876.88284	280.2679257	969.6397759	1843.431819	301.7501186	1003.089708	1911.96302	351.0683409	953.3855084	1880.404213	376.1221794	988.6262557	2110.300562	691.7270028	924.1413322	2068.092492	709.4876009	982.0366835	2127.127636	800.0179377	908.7835596	2092.916314	816.0643325	966.2923898	2326.710096	1064.640686	1161.366896	2524.177913	126.9649964	1130.934967	2332.415932	85.18868804	1110.071663	2360.70609	96.2591967	1155.853358	2347.205139	131.877681	1113.535361	2271.34734	1141.845422	1196.864211	2528.246764	76.20265897	1187.19713	2556.006434	88.30326482	1083.846623	2166.322416	1116.600561	1106.899946	2410.914569	228.451237	1171.874916	2368.517201	233.5004594	1137.748283	2404.960915	307.9549493	1188.154891	2363.790108	312.3788897	1152.872358	2389.834174	667.3300034	1207.049904	2335.640289	639.4300978	1165.532221	2330.292575	759.0069454	1221.623078	2278.355403	732.4689073	1182.55469
566	3.766666667	2330.161092	1062.674966	955.098439	1729.772762	237.7799577	1037.200545	1753.016233	220.8432481	994.3016849	1772.601242	258.2232487	1031.473808	2282.73269	1140.456154	929.6903965	1876.969214	73.95461765	1070.431307	1837.892824	84.91984317	969.9828639	2164.025966	1119.970201	1031.466639	1872.215815	285.8741414	966.8407148	1838.885152	307.6140941	1000.258143	1908.317914	356.2034183	951.099214	1876.954435	381.5238193	986.3081631	2110.616555	694.1615939	923.7149995	2068.517844	712.2570285	981.5922757	2128.150012	802.3426332	908.2859159	2094.105359	818.6608134	965.8004741	2327.721718	1065.559335	1161.200567	2538.071469	128.2548006	1128.70174	2347.078086	81.19352498	1109.504216	2375.757064	92.18206788	1155.082219	2360.518338	128.213881	1113.704989	2272.478859	1142.705593	1196.873215	2544.273869	76.22495809	1183.646632	2570.165058	91.52945769	1080.214721	2167.489109	1117.672978	1106.864433	2421.200444	226.5048577	1171.339025	2378.363258	230.1741506	1137.54881	2412.490611	305.6711155	1188.044924	2370.931716	308.7781513	1153.047956	2387.387673	666.2005574	1207.416158	2333.179233	639.0296331	1165.540368	2328.642073	758.4708636	1222.052965	2276.68896	732.5703547	1182.713513
